<svg id="svg" xmlns="http://www.w3.org/2000/svg" viewBox="105.62999725341797 31.889999389648438 410.9599914550781 206.4600067138672" height="206.4600067138672"><path d="M 117.84,59.69 L 117.01,59.93 L 116.66,60.98 L 116.66,63.77 L 117.01,68.97 L 118.06,76.27 L 118.76,85.99 L 118.76,96.05 L 118.76,106.82 L 117.71,121.05 L 117.01,129.37 L 116.31,140.51 L 115.63,151.61 L 115.63,165.14 L 115.63,172.44 L 115.63,182.16 L 116.31,191.89 L 116.66,200.91 L 117.36,208.91 L 118.06,215.14 L 118.41,218.96 L 118.76,220.36" fill="none" stroke="#f14c4c" stroke-width="2"></path><path d="M 121.32,58.66 L 120.49,58.21 L 119.79,57.87 L 117.71,57.52 L 117.01,57.87 L 117.01,58.21 L 120.13,58.56 L 123.97,58.56 L 130.9,58.56 L 141.67,57.52 L 154.17,56.83 L 166.66,56.47 L 181.26,55.78 L 189.24,55.08 L 199.66,54.39 L 208.32,53.7 L 214.23,52.99 L 218.07,52.3 L 218.74,52.3 L 219.09,52.3 L 219.09,52.3 L 218.74,52.3 L 218.39,52.99 L 217.71,54.39 L 217.36,56.47 L 217.36,59.25 L 217.36,64.46 L 217.71,68.97 L 218.07,76.27 L 218.07,84.6 L 218.39,96.39 L 219.09,106.82 L 219.79,114.44 L 221.17,124.88 L 222.22,135.63 L 222.92,149.17 L 223.27,158.91 L 223.95,166.18 L 224.65,175.23 L 225.7,183.89 L 227.08,191.89 L 228.48,199.18 L 229.51,206.13 L 230.91,211.68 L 231.94,216.54 L 232.99,220.7 L 234.01,223.49 L 234.71,225.22 L 235.07,226.62 L 235.77,227.66 L 235.77,228 L 235.77,228.35 L 235.77,228.35 L 235.77,228.35 L 235.07,228.35 L 233.34,227.66 L 231.24,227.66 L 227.43,226.96 L 222.22,226.62 L 216.31,226.27 L 209.37,225.56 L 202.09,225.22 L 193.75,224.53 L 185.06,223.49 L 177.08,222.8 L 169.09,222.43 L 161.8,222.09 L 155.54,221.74 L 148.96,221.74 L 142.7,221.74 L 136.81,221.74 L 131.6,221.74 L 126.72,222.09 L 123.62,222.09 L 121.51,222.43 L 120.49,222.43 L 120.13,222.43 L 120.13,222.09 L 120.13,221.74 L 120.13,221.05 L 120.13,220.7 L 120.13,220.36 L 120.49,220.36" fill="none" stroke="#f14c4c" stroke-width="2"></path><path d="M 260.19,48.24 L 259.03,47.44 L 256.95,47.1 L 255.2,47.79 L 253.47,49.88 L 252.77,51.61 L 252.77,52.64 L 255.2,52.99 L 259.03,54.39 L 260.76,55.43 L 262.16,57.52 L 261.46,59.58 L 257.98,61.33 L 254.17,62.36 L 251.04,62.36 L 250.34,60.98 L 251.04,59.25 L 251.39,58.91" fill="none" stroke="#f14c4c" stroke-width="2"></path><path d="M 268.88,46.51 L 268.74,45.69 L 268.39,45 L 268.39,45 L 268.39,47.44 L 268.39,51.26 L 268.74,55.08 L 268.74,59.58 L 268.74,61.67 L 268.74,62.02" fill="none" stroke="#f14c4c" stroke-width="2"></path><path d="M 265.07,54.16 L 264.94,52.99 L 264.94,52.64 L 266.67,51.95 L 270.47,51.95 L 274.65,51.61 L 278.13,51.61 L 280.56,51.26 L 281.24,50.92 L 280.21,50.92 L 277.79,51.26 L 276.03,52.64 L 273.95,55.08 L 273.6,56.83 L 273.95,58.56 L 276.03,58.91 L 278.13,58.21 L 280.21,56.47 L 281.24,53.7 L 281.59,52.64 L 281.59,52.3 L 281.59,53.36 L 281.59,54.74 L 281.94,57.18 L 282.64,59.58 L 283.34,60.98" fill="none" stroke="#f14c4c" stroke-width="2"></path><path d="M 289.71,53.46 L 289.58,51.61 L 289.58,49.52 L 289.58,48.83 L 289.23,48.48 L 288.2,48.48 L 287.15,50.23 L 286.45,52.99 L 286.1,55.78 L 286.8,58.56 L 288.55,60.29 L 290.28,60.29 L 293.41,57.87 L 295.49,55.78 L 296.51,52.3 L 296.86,48.13 L 295.84,43.97 L 295.13,41.89 L 295.13,41.89 L 295.13,41.89 L 295.13,43.62 L 295.84,46.41 L 296.51,50.23 L 297.21,54.74 L 297.56,56.83 L 297.56,58.21 L 297.56,57.52 L 297.56,56.47 L 297.21,54.74 L 297.56,52.64 L 298.27,50.57 L 299.64,49.17 L 301.4,48.83 L 302.42,49.88 L 302.42,51.26 L 301.04,52.99 L 298.62,55.08 L 296.86,55.78 L 296.51,56.12 L 296.86,56.12 L 299.64,56.12 L 302.77,56.47 L 305.9,57.18 L 307.28,57.52 L 307.98,57.52" fill="none" stroke="#f14c4c" stroke-width="2"></path><path d="M 116.79,129.13 L 117.71,129.37 L 118.41,129.37 L 122.21,129.02 L 128.12,128 L 136.81,127.31 L 142.34,126.97 L 148.96,126.62 L 155.54,126.27 L 162.15,126.27 L 165.96,126.27 L 170.84,125.93 L 178.13,125.56 L 184.04,125.22 L 187.84,125.22 L 193.75,124.53 L 198.26,123.84 L 202.09,123.14 L 205.19,122.8 L 209.73,122.09 L 211.46,122.09 L 213.88,122.09 L 214.23,122.09 L 214.93,122.09 L 215.29,122.09 L 215.29,122.45 L 216.31,122.45 L 216.66,122.45" fill="none" stroke="#f14c4c" stroke-width="2"></path><path d="M 206.38,97.2 L 204.87,97.09 L 204.87,97.09 L 206.95,97.43 L 212.86,97.43 L 221.52,97.09 L 229.51,96.74 L 234.71,96.74 L 235.42,96.74" fill="none" stroke="#f14c4c" stroke-width="2"></path><path d="M 229.64,93.73 L 230.21,93.28 L 231.94,92.94 L 233.69,92.94 L 235.77,94.3 L 236.44,96.74 L 234.71,100.56 L 232.64,102.66 L 229.51,105.44 L 229.16,105.78" fill="none" stroke="#f14c4c" stroke-width="2"></path><path d="M 251.88,93.39 L 251.74,92.24 L 251.39,91.55 L 251.04,91.21 L 250.69,93.28 L 250.69,97.09 L 251.39,101.96 L 252.42,106.48 L 253.12,109.95 L 253.12,111.66 L 252.42,111.66" fill="none" stroke="#f14c4c" stroke-width="2"></path><path d="M 250.48,94.41 L 250.34,91.21 L 251.74,90.15 L 254.17,89.81 L 256.25,91.55 L 256.95,94.65 L 256.25,97.43 L 254.85,99.53 L 253.47,100.56 L 251.39,101.96 L 252.07,101.6 L 254.17,100.56" fill="none" stroke="#f14c4c" stroke-width="2"></path><path d="M 266.1,94.08 L 266.32,92.59 L 266.67,91.21 L 265.61,90.84 L 263.54,92.24 L 261.11,94.65 L 259.73,97.09 L 259.73,99.53 L 260.06,100.56 L 262.16,100.22 L 264.59,98.13 L 267.02,96.05 L 267.72,95.36 L 268.04,95.01 L 268.39,96.39 L 268.74,98.13 L 268.74,98.83 L 268.74,99.18" fill="none" stroke="#f14c4c" stroke-width="2"></path><path d="M 270.28,93.04 L 270.47,91.9 L 270.82,90.84 L 271.88,90.84 L 272.57,92.24 L 273.25,94.65 L 273.6,97.43 L 273.6,99.87 L 273.25,100.56 L 272.93,100.22 L 272.93,98.49 L 273.25,95.36 L 275.01,92.24 L 276.38,90.84 L 278.81,90.5" fill="none" stroke="#f14c4c" stroke-width="2"></path><path d="M 284.15,93.39 L 284.72,92.59 L 284.72,91.55 L 284.02,90.5 L 282.64,90.5 L 280.56,91.21 L 278.13,93.97 L 277.43,96.05 L 277.79,97.09 L 279.51,97.43 L 281.94,96.05 L 284.02,94.65 L 285.07,93.63 L 285.42,93.28 L 285.42,93.63 L 285.42,95.36 L 285.42,96.39 L 285.77,97.78 L 285.77,98.13" fill="none" stroke="#f14c4c" stroke-width="2"></path><path d="M 289.01,93.39 L 288.88,92.24 L 288.88,91.21 L 289.23,90.15 L 289.58,89.81 L 290.28,90.84 L 290.28,92.59 L 290.63,94.65 L 290.63,97.09 L 290.98,97.78 L 290.98,98.13 L 291.31,97.43 L 292.36,95.01 L 293.41,92.94 L 294.43,91.9 L 295.49,91.9 L 296.19,93.28 L 296.19,94.65 L 296.51,95.7 L 296.51,96.05 L 297.21,96.05 L 297.92,94.65 L 299.29,92.59 L 300.7,90.84 L 302.42,90.15 L 303.12,90.5 L 303.12,92.59 L 303.47,93.97 L 303.82,96.05 L 304.5,97.09" fill="none" stroke="#f14c4c" stroke-width="2"></path><path d="M 308.47,95.12 L 308.33,94.3 L 309.03,93.28 L 310.06,92.24 L 311.11,91.21 L 311.81,90.15 L 311.81,89.11 L 310.76,88.77 L 308.68,89.46 L 307.63,90.5 L 306.6,93.28 L 306.6,94.65 L 307.98,96.39 L 311.11,96.74 L 313.89,95.36 L 316.32,92.59 L 317.7,88.77 L 318.05,84.6 L 316.67,80.42 L 315.97,79.03 L 315.27,78.69 L 315.27,81.13 L 315.97,86.33 L 317.02,90.84 L 317.34,94.3 L 318.05,97.78 L 318.4,98.83" fill="none" stroke="#f14c4c" stroke-width="2"></path><path d="M 315.4,90.95 L 314.92,90.15 L 315.62,89.81 L 317.34,89.81 L 320.13,89.46 L 322.56,89.46 L 324.66,89.46 L 325.01,89.46" fill="none" stroke="#f14c4c" stroke-width="2"></path><path d="M 326.52,92.7 L 327.09,92.59 L 327.44,92.59 L 328.46,91.9 L 329.51,90.84 L 329.51,89.46 L 328.81,88.08 L 327.44,87.73 L 325.33,87.73 L 324.31,89.46 L 324.31,91.21 L 325.01,94.3 L 326.74,95.7 L 329.87,96.05 L 331.59,95.7" fill="none" stroke="#f14c4c" stroke-width="2"></path><path d="M 333.13,87.84 L 332.99,87.02 L 332.99,86.33 L 333.67,86.33 L 334.37,87.37 L 335.42,90.15 L 335.75,92.59 L 335.75,94.65 L 335.07,96.39 L 334.37,95.7 L 334.02,94.3 L 334.02,92.24 L 335.42,89.81 L 337.15,88.08 L 339.93,86.68 L 340.63,86.68" fill="none" stroke="#f14c4c" stroke-width="2"></path><path d="M 339.37,93.73 L 339.58,93.63 L 341.66,91.9 L 343.41,90.15 L 344.79,87.73 L 345.49,85.99 L 345.14,85.64 L 344.44,86.33 L 344.44,88.42 L 345.14,90.15 L 346.17,93.28 L 346.87,95.01 L 346.52,96.39 L 344.44,97.09 L 343.74,97.09" fill="none" stroke="#f14c4c" stroke-width="2"></path><path d="M 119.57,161.79 L 118.41,161.69 L 118.06,161.69 L 118.06,161.69 L 117.71,161.69 L 118.06,162.03 L 120.49,162.03 L 124.29,162.03 L 130.55,162.03 L 138.89,161 L 147.58,159.94 L 156.59,158.91 L 163.21,158.56 L 172.92,158.21 L 178.13,158.21 L 186.46,158.21 L 193.4,158.21 L 200.34,158.21 L 206.6,158.56 L 211.81,158.91 L 215.96,158.91 L 219.44,158.91 L 222.22,158.91 L 223.95,158.91 L 224.3,158.91 L 224.65,158.21" fill="none" stroke="#f14c4c" stroke-width="2"></path><path d="M 209.86,147.55 L 208.68,147.44 L 206.95,147.09 L 205.9,147.09 L 207.3,147.09 L 212.16,147.09 L 220.82,146.73 L 230.91,146.38 L 236.79,146.38 L 240.27,146.38 L 239.57,146.04" fill="none" stroke="#f14c4c" stroke-width="2"></path><path d="M 234.15,142.34 L 234.71,141.54 L 235.42,141.2 L 236.79,141.2 L 238.55,142.24 L 239.23,145.36 L 238.9,147.78 L 238.2,149.17 L 234.01,152.3 L 233.69,152.64" fill="none" stroke="#f14c4c" stroke-width="2"></path><path d="M 252.2,143.4 L 252.07,141.54 L 253.12,141.2 L 254.85,143.64 L 256.6,147.44 L 256.95,151.26 L 256.95,153.7 L 256.6,154.39 L 255.9,153.7 L 255.55,150.57 L 256.95,147.09 L 259.38,142.93 L 262.84,140.85 L 264.59,140.85" fill="none" stroke="#f14c4c" stroke-width="2"></path><path d="M 264.72,149.27 L 265.61,149.17 L 265.96,149.17 L 267.02,149.17 L 268.04,147.78 L 268.39,146.38 L 268.04,144.33 L 266.67,143.64 L 263.89,143.98 L 262.48,146.38 L 262.16,148.48 L 264.59,151.61 L 268.04,151.95 L 272.22,151.26 L 275.68,148.48 L 277.79,145.02 L 278.46,140.51 L 277.79,136.34 L 276.73,134.59 L 276.03,134.59 L 275.36,137.03 L 275.36,140.85 L 275.68,145.36 L 276.73,149.86 L 277.08,151.95 L 277.08,153.34 L 277.43,153.34" fill="none" stroke="#f14c4c" stroke-width="2"></path><path d="M 274.09,146.84 L 273.6,146.04 L 273.25,145.36 L 274.65,145.02 L 277.08,145.02 L 279.86,144.33 L 282.99,143.64 L 284.02,143.29 L 284.72,143.29 L 284.37,144.33 L 284.02,147.44 L 284.02,149.86 L 285.07,151.61 L 287.5,151.61 L 289.23,150.91 L 291.66,148.13 L 292.01,146.38 L 292.36,144.67 L 292.01,144.33 L 292.01,145.71 L 292.01,147.78 L 292.71,149.86 L 293.76,151.61 L 294.09,151.95" fill="none" stroke="#f14c4c" stroke-width="2"></path><path d="M 295.97,145.82 L 296.51,143.64 L 296.86,143.29 L 298.27,143.29 L 299.99,145.02 L 300.7,146.73 L 301.4,149.86 L 301.4,151.95 L 300.34,152.64 L 298.97,152.3 L 298.62,150.22 L 298.97,147.44 L 300.7,143.98 L 303.47,140.85 L 304.85,140.51" fill="none" stroke="#f14c4c" stroke-width="2"></path><path d="M 305.69,144.09 L 305.2,145.02 L 305.55,146.73 L 305.9,148.82 L 305.9,150.91 L 305.9,151.95 L 306.26,152.3 L 306.93,150.91 L 308.33,148.48 L 310.06,146.38 L 311.46,145.36 L 312.84,146.38 L 314.24,148.82 L 314.92,150.91 L 315.62,152.99" fill="none" stroke="#f14c4c" stroke-width="2"></path><path d="M 345.97,145.47 L 345.49,142.24 L 343.74,141.54 L 340.96,143.64 L 337.85,146.73 L 336.8,149.17 L 336.8,151.61 L 338.21,151.95 L 340.63,150.91 L 343.41,148.82 L 345.14,147.44 L 346.17,146.38 L 346.87,146.04 L 347.22,147.44 L 347.92,149.51 L 349.29,150.91 L 351.73,151.61 L 352.78,151.61" fill="none" stroke="#f14c4c" stroke-width="2"></path><path d="M 360.2,147.89 L 360.76,146.38 L 360.06,144.67 L 357.28,144.67 L 353.83,146.04 L 351.05,148.82 L 350.7,151.26 L 351.38,152.64 L 353.48,152.64 L 355.91,150.91 L 360.06,147.44 L 362.49,142.93 L 362.84,139.81 L 361.79,136.68 L 361.12,137.03 L 360.06,139.11 L 359.71,142.93 L 360.06,146.73 L 361.46,149.86 L 363.54,151.61" fill="none" stroke="#f14c4c" stroke-width="2"></path><path d="M 370.96,148.93 L 370.83,147.44 L 370.48,146.04 L 368.75,145.71 L 366.32,146.73 L 364.57,148.82 L 364.24,150.57 L 364.24,151.61 L 366.32,151.61 L 368.75,150.22 L 371.18,147.78 L 372.56,145.02 L 373.61,139.11 L 373.26,136.34 L 372.21,135.98 L 371.53,137.72 L 370.83,141.2 L 370.83,145.36 L 371.88,148.82 L 372.91,151.61 L 373.26,151.95" fill="none" stroke="#f14c4c" stroke-width="2"></path><path d="M 376.52,144.43 L 376.74,143.64 L 377.76,142.93 L 378.82,143.98 L 380.19,146.04 L 380.9,148.82 L 380.9,150.91 L 380.9,151.95 L 380.19,151.95 L 379.87,150.22 L 380.19,147.78 L 382.3,145.02 L 384.73,142.93" fill="none" stroke="#f14c4c" stroke-width="2"></path><path d="M 386.94,149.27 L 387.51,149.51 L 388.18,148.82 L 389.59,147.09 L 389.94,145.36 L 389.59,143.64 L 387.51,142.58 L 386.1,143.29 L 385.4,145.71 L 385.4,148.48 L 386.81,151.26 L 388.88,152.99 L 391.31,152.99 L 394.09,151.61 L 396.17,149.17 L 396.87,146.38 L 396.87,144.33 L 396.52,143.29 L 396.52,143.29 L 396.52,143.29 L 397.22,143.98 L 398.27,143.98 L 399.3,143.98 L 400,143.29 L 400.35,142.58 L 400.35,142.24 L 399.65,141.89 L 398.95,141.89 L 398.27,141.89 L 398.27,142.58 L 398.27,143.29 L 398.27,144.33 L 398.95,146.38 L 399.65,148.48 L 400,151.26 L 400,154.04 L 399.65,155.78 L 398.95,156.47 L 398.6,156.12 L 398.95,154.74 L 400.35,152.3 L 402.43,149.86 L 404.86,147.44 L 407.64,145.02 L 409.01,143.64 L 409.37,142.58 L 408.34,142.24 L 407.29,142.93 L 406.59,144.33 L 406.59,146.38 L 406.94,148.82 L 407.64,151.26 L 407.64,153.7 L 405.56,155.43 L 404.51,155.78" fill="none" stroke="#f14c4c" stroke-width="2"></path><path d="M 167.5,170.81 L 167.5,169.76 L 167.01,168.97 L 167.01,173.48 L 167.01,181.47 L 168.06,189.8 L 168.41,196.06 L 168.74,200.91 L 168.74,203.69 L 168.74,204.38" fill="none" stroke="#f14c4c" stroke-width="2"></path><path d="M 160.88,195.83 L 160.07,195.03 L 159.72,194.66 L 159.72,195.03 L 160.07,198.47 L 161.8,202.65 L 165.28,205.78 L 170.14,206.47 L 172.92,205.07 L 176.37,202.31 L 179.15,199.87 L 179.85,199.18" fill="none" stroke="#f14c4c" stroke-width="2"></path><path d="M 195.26,194.08 L 196.88,193.63 L 202.09,193.28 L 212.51,192.94 L 222.22,192.94 L 226.38,192.94 L 235.77,193.28 L 238.2,193.28 L 237.49,192.94" fill="none" stroke="#f14c4c" stroke-width="2"></path><path d="M 232.07,189.91 L 231.94,188.77 L 234.01,188.42 L 237.14,189.46 L 239.23,191.89 L 239.93,195.03 L 238.2,198.12 L 235.42,201.25 L 233.69,203" fill="none" stroke="#f14c4c" stroke-width="2"></path><path d="M 273.74,181.92 L 272.22,178.01 L 270.47,175.58 L 268.39,175.23 L 266.32,178.01 L 264.94,184.24 L 264.94,192.94 L 266.32,201.6 L 267.02,208.55 L 266.67,212.39 L 264.59,215.14" fill="none" stroke="#f14c4c" stroke-width="2"></path><path d="M 258.46,198.23 L 259.38,196.76 L 261.11,195.72 L 262.84,194.66 L 264.94,192.94 L 265.61,191.89 L 265.96,192.59 L 266.32,195.03 L 267.02,196.76 L 268.04,198.83 L 269.09,199.52 L 270.15,199.52 L 273.6,196.76 L 275.01,195.03 L 275.01,193.28 L 275.01,192.94 L 274.31,194.32 L 273.95,196.41 L 273.95,198.47 L 273.95,199.87 L 274.31,200.21" fill="none" stroke="#f14c4c" stroke-width="2"></path><path d="M 277.92,194.43 L 277.79,192.59 L 278.13,192.24 L 278.81,193.28 L 278.81,195.37 L 279.16,197.78 L 279.16,199.18 L 279.51,199.52 L 280.21,199.18 L 282.29,197.1 L 284.72,194.66 L 286.8,193.63 L 287.85,194.32 L 288.55,196.06 L 288.88,197.78 L 289.23,198.83 L 289.23,198.83" fill="none" stroke="#f14c4c" stroke-width="2"></path><path d="M 296.65,192.35 L 296.65,191.3 L 296.19,190.49 L 294.79,190.84 L 293.06,192.59 L 291.66,195.37 L 292.01,198.83 L 294.43,200.21 L 298.27,199.87 L 302.07,196.76 L 304.85,192.59 L 305.9,188.06 L 304.85,184.24 L 303.82,182.85 L 303.47,183.89 L 303.12,187.02 L 303.47,191.89 L 304.17,196.06 L 304.5,199.52 L 304.85,200.56" fill="none" stroke="#f14c4c" stroke-width="2"></path><path d="M 303.26,194.77 L 302.42,193.63 L 303.47,193.28 L 305.9,193.28 L 309.03,192.94 L 312.14,191.89 L 313.89,190.84 L 314.24,190.84 L 313.54,191.19 L 313.19,191.89 L 312.49,196.06 L 312.49,198.83 L 312.49,200.56 L 312.49,200.91" fill="none" stroke="#f14c4c" stroke-width="2"></path><path d="M 311.95,187.13 L 311.46,186.33 L 310.76,185.29 L 310.41,184.94 L 310.41,187.02 L 311.11,189.11 L 312.14,190.49" fill="none" stroke="#f14c4c" stroke-width="2"></path><path d="M 321.66,193.39 L 321.18,192.59 L 320.48,192.59 L 319.1,192.59 L 317.02,193.63 L 315.97,195.03 L 315.62,196.41 L 315.97,197.1 L 316.67,197.1 L 318.4,196.06 L 319.8,194.32 L 321.18,193.28 L 322.9,192.59 L 323.96,193.28 L 325.01,195.37 L 325.33,197.1 L 325.68,198.47 L 325.68,198.47 L 325.68,197.78 L 326.74,196.41 L 328.46,193.97 L 329.87,192.59 L 330.89,192.59 L 331.59,194.32 L 331.59,197.1 L 332.29,199.18 L 332.65,199.52" fill="none" stroke="#f14c4c" stroke-width="2"></path><path d="M 358.47,200.32 L 359.04,199.52 L 360.06,197.1 L 362.14,194.66 L 364.24,191.53 L 364.57,187.02 L 364.24,182.51 L 363.54,179.39 L 362.84,179.05 L 362.14,181.47 L 361.79,186.33 L 362.49,192.94 L 363.19,196.76 L 364.92,200.21 L 365.62,200.91" fill="none" stroke="#f14c4c" stroke-width="2"></path><path d="M 370.62,191.64 L 369.78,191.53 L 369.1,191.89 L 368.75,193.97 L 368.4,196.41 L 369.78,197.78 L 372.21,197.78 L 374.99,196.06 L 376.74,192.59 L 376.74,191.19 L 373.96,188.77 L 370.48,189.11 L 370.13,190.15 L 370.13,192.24" fill="none" stroke="#f14c4c" stroke-width="2"></path><path d="M 383.81,190.26 L 384.03,188.06 L 383.68,187.71 L 382.65,187.71 L 381.6,189.11 L 380.19,192.24 L 380.54,195.03 L 382.3,197.1 L 385.4,197.45 L 389.59,197.1 L 393.39,195.03 L 395.14,192.94 L 395.14,190.84 L 393.07,190.15 L 390.29,190.15 L 388.18,191.53 L 387.16,193.28 L 387.16,195.03 L 388.88,196.06 L 391.31,196.06 L 393.07,195.72 L 395.14,195.03 L 395.49,195.03 L 395.49,195.37 L 395.82,196.06 L 396.52,196.06 L 397.92,196.06 L 399.65,194.66 L 401.73,192.24 L 402.78,188.42 L 402.78,183.54 L 401.73,178.7 L 400.35,177.3 L 399.65,178.01 L 398.95,181.11 L 398.6,184.94 L 398.6,189.8 L 400.7,195.03 L 403.81,198.47 L 404.51,199.18" fill="none" stroke="#f14c4c" stroke-width="2"></path><path d="M 423.39,189.22 L 422.91,187.71 L 422.21,186.67 L 422.56,186.67 L 423.26,189.46 L 424.64,192.59 L 425.34,195.03 L 427.07,197.1 L 429.17,196.41 L 430.9,193.28 L 431.25,191.19 L 431.95,185.98 L 431.95,184.58 L 432.98,186.33 L 433.68,188.06" fill="none" stroke="#f14c4c" stroke-width="2"></path><path d="M 443.53,189.91 L 442.72,188.06 L 440.96,187.02 L 437.16,189.11 L 434.38,192.24 L 433.68,195.03 L 434.38,195.72 L 436.81,195.72 L 439.94,193.97 L 442.37,191.89 L 444.45,190.15 L 444.8,189.8 L 444.8,190.49 L 445.15,192.59 L 445.82,194.66" fill="none" stroke="#f14c4c" stroke-width="2"></path><path d="M 447.36,188.53 L 447.57,187.36 L 448.25,187.02 L 449.65,187.71 L 450.68,190.15 L 451.38,193.28 L 451.38,195.72 L 450.36,196.76 L 450.01,196.41 L 450.01,194.32 L 451.38,191.53 L 453.13,189.11 L 454.86,188.06 L 457.29,187.71 L 458.34,188.77" fill="none" stroke="#f14c4c" stroke-width="2"></path><path d="M 460.21,188.16 L 459.72,187.02 L 459.37,185.98 L 459.37,185.98 L 459.02,186.67 L 458.67,188.77 L 458.67,191.53 L 459.02,194.32 L 459.02,195.72 L 459.37,196.06" fill="none" stroke="#f14c4c" stroke-width="2"></path><path d="M 459.15,180.87 L 457.99,179.74 L 456.94,179.39 L 456.94,179.74 L 457.29,181.47 L 457.64,182.16 L 459.02,182.51 L 460.07,182.16 L 460.77,181.11 L 460.42,180.76 L 458.34,181.47 L 457.99,182.16" fill="none" stroke="#f14c4c" stroke-width="2"></path><path d="M 472.35,193.04 L 472.56,190.15 L 472.21,188.42 L 470.14,187.71 L 467.01,188.77 L 464.58,190.49 L 464.23,192.24 L 464.93,193.28 L 466.31,193.28 L 469.43,192.59 L 470.84,191.89 L 472.21,191.89 L 472.21,191.89 L 472.56,192.94 L 472.92,193.97 L 473.62,194.66 L 474.99,195.03 L 477.07,193.97 L 478.82,192.24 L 480.2,189.11 L 480.55,182.85 L 480.2,179.74 L 479.5,178.01 L 479.17,178.01 L 478.82,180.41 L 478.82,183.54 L 478.82,187.71 L 478.82,191.19 L 478.82,193.63 L 478.82,194.32 L 479.85,193.97 L 481.6,192.24 L 483.68,191.19 L 485.06,190.84 L 485.41,191.53 L 485.06,192.94 L 482.63,194.32 L 480.2,195.03 L 478.12,195.03 L 477.42,195.03 L 477.77,195.03 L 479.85,194.66 L 482.98,193.63 L 486.11,192.24 L 489.24,189.8 L 490.27,187.71 L 490.62,183.2 L 490.62,182.16 L 489.59,178.01 L 489.59,177.67 L 489.24,180.09 L 489.24,180.76 L 490.27,188.06 L 490.97,191.89 L 491.67,195.37 L 492.02,196.06" fill="none" stroke="#f14c4c" stroke-width="2"></path><path d="M 494.93,192.69 L 494.8,191.53 L 494.8,191.19 L 494.8,191.19 L 496.18,190.49 L 497.56,189.46 L 498.61,188.42 L 498.61,187.36 L 497.23,186.67 L 494.8,187.02 L 493.75,188.77 L 493.75,190.84 L 494.1,193.28 L 495.48,195.72 L 497.9,196.41 L 500.68,195.72 L 503.46,193.28 L 505.22,189.8 L 506.24,186.67 L 506.24,185.64 L 505.89,185.64 L 505.89,188.06 L 506.24,191.19 L 506.59,193.63 L 506.24,196.41 L 503.81,197.1 L 500.01,196.76 L 495.48,195.72" fill="none" stroke="#f14c4c" stroke-width="2"></path></svg>